<?xml version="1.0" standalone="no"?>
<!DOCTYPE svg PUBLIC "-//W3C//DTD SVG 20010904//EN"
 "http://www.w3.org/TR/2001/REC-SVG-20010904/DTD/svg10.dtd">
<svg version="1.0" xmlns="http://www.w3.org/2000/svg"
 width="989.000000pt" height="354.000000pt" viewBox="0 0 989.000000 354.000000"
 preserveAspectRatio="xMidYMid meet">

<g transform="translate(0.000000,354.000000) scale(0.100000,-0.100000)"
fill="#000000" stroke="none">
<path d="M1485 3280 c-136 -17 -228 -37 -370 -81 -53 -16 -272 -126 -332 -167
-255 -174 -445 -404 -559 -679 -90 -220 -117 -355 -117 -598 0 -137 4 -191 22
-279 64 -316 197 -564 420 -786 281 -280 560 -409 979 -450 108 -11 131 -10
327 14 259 33 562 172 765 351 122 107 221 222 298 346 91 144 175 355 201
504 7 39 17 89 22 112 14 64 11 287 -6 404 -81 570 -463 1036 -1011 1232 -176
63 -470 98 -639 77z m300 -50 c256 -30 515 -131 715 -281 112 -83 167 -135
259 -244 57 -67 171 -233 171 -250 0 -2 15 -36 34 -75 61 -125 99 -250 121
-400 16 -108 20 -360 6 -423 -5 -23 -15 -69 -21 -102 -30 -149 -118 -365 -204
-497 -134 -209 -351 -404 -566 -509 -218 -107 -319 -136 -553 -160 -376 -40
-814 108 -1106 373 -418 379 -584 949 -435 1493 117 428 431 790 834 959 96
41 143 57 265 88 131 34 327 45 480 28z"/>
<path d="M1557 3152 c-11 -17 6 -62 24 -62 10 0 39 -25 65 -57 56 -70 70 -80
79 -54 8 26 -4 71 -20 71 -7 0 -34 25 -60 55 -42 50 -76 68 -88 47z"/>
<path d="M1705 3141 c-3 -5 -1 -12 5 -16 12 -7 30 2 30 16 0 12 -27 12 -35 0z"/>
<path d="M1332 3121 c-10 -6 -10 -10 2 -20 10 -9 16 -9 21 -1 10 16 -7 31 -23
21z"/>
<path d="M1947 3113 c-3 -5 -8 -30 -12 -58 -4 -27 -13 -65 -21 -84 -16 -37 -8
-55 21 -49 12 2 23 20 31 53 8 28 19 65 25 84 10 30 9 36 -7 48 -20 15 -31 16
-37 6z"/>
<path d="M1191 3086 c-9 -10 -9 -20 -2 -33 6 -10 15 -36 21 -58 12 -52 28 -72
63 -81 l27 -6 -25 53 c-13 30 -27 73 -31 96 -7 46 -29 58 -53 29z"/>
<path d="M1562 3060 c0 -14 2 -19 5 -12 2 6 2 18 0 25 -3 6 -5 1 -5 -13z"/>
<path d="M2186 2987 c-11 -93 -7 -167 8 -167 26 0 39 31 40 98 1 37 5 74 10
83 5 13 0 19 -22 27 l-29 10 -7 -51z"/>
<path d="M1557 2993 c-6 -33 -5 -36 21 -31 18 3 18 4 2 31 l-17 28 -6 -28z"/>
<path d="M2330 2946 c0 -9 7 -16 16 -16 9 0 14 5 12 12 -6 18 -28 21 -28 4z"/>
<path d="M800 2875 c0 -8 9 -15 20 -15 13 0 18 5 14 15 -4 8 -12 15 -20 15 -8
0 -14 -7 -14 -15z"/>
<path d="M1530 2883 c-184 -13 -366 -78 -540 -192 -80 -52 -234 -205 -284
-281 -149 -226 -200 -393 -200 -650 0 -220 39 -373 140 -552 124 -219 349
-417 559 -492 28 -10 59 -21 70 -26 79 -34 165 -45 355 -45 168 0 205 3 270
22 168 47 257 89 380 176 233 166 400 426 452 702 16 85 16 345 0 433 -23 126
-74 255 -146 372 -50 82 -165 219 -214 256 -20 16 -44 35 -52 43 -27 27 -144
98 -220 134 -100 48 -227 83 -343 96 -93 11 -131 11 -227 4z m290 -42 c131
-35 173 -48 240 -76 229 -97 412 -268 541 -505 67 -123 107 -273 115 -435 17
-327 -88 -608 -314 -834 -214 -216 -468 -321 -773 -321 -347 0 -640 141 -865
416 -44 53 -125 195 -149 259 -10 28 -21 55 -25 60 -4 6 -14 46 -24 90 -10 44
-22 96 -27 116 -12 49 -11 235 2 301 19 98 42 193 49 203 3 6 15 33 25 60 61
166 212 359 370 472 120 87 339 183 415 183 14 0 30 4 36 9 18 19 317 20 384
2z"/>
<path d="M1505 2791 c-505 -66 -882 -468 -912 -972 -13 -231 62 -490 192 -664
165 -220 368 -349 652 -415 28 -6 114 -11 190 -11 195 1 292 23 464 107 261
128 447 353 535 649 24 81 27 106 28 260 1 216 -17 307 -95 466 -58 118 -112
194 -205 286 -145 144 -327 241 -529 282 -72 14 -250 21 -320 12z m30 -192
l26 -32 -3 -279 -3 -280 -33 -29 c-18 -16 -40 -29 -50 -29 -27 0 -103 -32
-178 -75 -85 -49 -251 -211 -323 -316 -61 -88 -99 -116 -133 -98 -65 33 -74
73 -32 142 45 71 173 224 238 283 75 68 202 153 276 184 30 12 58 28 62 34 4
6 8 44 8 84 0 56 -4 74 -15 78 -40 16 -263 -102 -398 -210 -69 -55 -147 -32
-147 44 0 31 7 44 38 72 103 93 295 201 445 249 73 24 72 23 80 112 9 94 87
130 142 66z m300 6 c21 -20 25 -34 25 -83 0 -36 5 -64 13 -70 6 -6 41 -20 76
-32 210 -70 481 -250 481 -318 -1 -45 -32 -77 -77 -76 -31 0 -52 10 -110 54
-91 69 -219 143 -301 172 -77 27 -82 23 -82 -73 0 -75 7 -85 80 -113 85 -33
213 -127 316 -230 95 -96 195 -223 215 -274 13 -35 -12 -87 -49 -100 -44 -15
-68 2 -140 98 -150 202 -320 340 -474 385 -31 9 -68 25 -82 36 l-26 20 0 294
0 294 26 20 c36 28 79 27 109 -4z m-156 -702 c12 -10 24 -35 28 -58 7 -42 26
-64 56 -65 32 0 152 -67 214 -119 34 -29 93 -93 132 -144 72 -96 171 -278 171
-316 0 -26 -51 -81 -75 -81 -39 0 -73 34 -108 109 -79 166 -200 312 -307 369
-72 38 -80 33 -80 -49 0 -70 1 -73 37 -103 108 -92 156 -149 193 -229 21 -45
46 -110 56 -145 17 -61 17 -63 -3 -90 -28 -38 -67 -50 -101 -31 -20 11 -33 33
-53 89 -35 105 -66 163 -110 209 -114 118 -235 37 -313 -209 -22 -72 -37 -90
-79 -97 -29 -4 -40 -1 -61 20 -33 33 -33 67 -1 163 45 135 96 207 223 315 l42
36 0 71 c0 66 -2 72 -20 72 -30 0 -125 -63 -184 -123 -59 -59 -128 -162 -186
-277 -53 -105 -95 -126 -145 -75 -39 38 -33 80 26 193 86 163 181 279 297 362
45 32 142 80 164 80 25 1 45 25 52 63 4 20 17 46 28 57 27 25 78 26 107 3z"/>
<path d="M2451 2759 c-61 -67 -64 -72 -46 -85 25 -18 45 -18 45 1 0 8 11 22
26 31 14 9 31 29 39 45 8 15 24 29 36 31 l20 3 -21 23 c-11 12 -24 22 -28 22
-4 0 -36 -32 -71 -71z"/>
<path d="M717 2813 c-23 -22 6 -113 42 -133 22 -11 61 -13 85 -4 20 8 11 24
-13 24 -23 0 -68 48 -82 88 -11 32 -19 38 -32 25z"/>
<path d="M867 2803 c-14 -17 -13 -20 8 -45 13 -16 28 -28 34 -28 19 0 22 39 5
65 -19 30 -26 31 -47 8z"/>
<path d="M2600 2740 c13 -23 20 -26 20 -6 0 8 -7 16 -15 20 -13 4 -14 2 -5
-14z"/>
<path d="M2517 2714 c-14 -14 -7 -35 11 -32 9 2 17 10 17 17 0 16 -18 25 -28
15z"/>
<path d="M534 2636 c-8 -22 -1 -28 26 -24 l22 3 -21 19 c-19 17 -21 17 -27 2z"/>
<path d="M2480 2610 c0 -5 9 -10 19 -10 11 0 23 5 26 10 4 6 -5 10 -19 10 -14
0 -26 -4 -26 -10z"/>
<path d="M610 2575 c10 -12 8 -16 -15 -25 -14 -5 -48 -10 -75 -10 -39 0 -52
-4 -64 -22 -17 -24 -21 -42 -7 -34 4 3 21 2 37 -3 20 -6 33 -4 41 4 6 6 41 15
79 18 82 8 99 20 64 47 -14 11 -31 20 -37 20 -7 0 -13 5 -13 10 0 6 -5 10 -11
10 -8 0 -8 -5 1 -15z"/>
<path d="M2731 2572 c-12 -23 -104 -82 -126 -82 -12 0 -13 -5 -3 -25 12 -27
37 -32 56 -13 22 22 32 -4 19 -50 -9 -35 -9 -45 4 -58 14 -14 18 -11 33 30 16
42 21 46 51 46 30 0 65 21 65 38 0 4 -9 21 -20 37 -18 27 -20 28 -20 8 0 -29
-38 -57 -57 -41 -23 18 -14 38 22 54 30 12 34 17 26 33 -6 10 -17 23 -25 30
-12 10 -17 9 -25 -7z"/>
<path d="M584 2415 c-9 -23 5 -37 22 -21 18 18 18 22 -1 30 -9 3 -18 -1 -21
-9z"/>
<path d="M331 2282 c-11 -21 3 -42 28 -42 13 0 79 -27 123 -51 13 -6 20 -4 28
10 16 31 12 37 -32 50 -24 7 -61 22 -82 32 -49 23 -53 23 -65 1z"/>
<path d="M2857 2242 c-9 -10 -19 -37 -22 -61 -6 -53 -11 -61 -36 -61 -22 0
-24 -11 -7 -28 17 -17 52 -15 71 6 8 9 17 37 19 62 2 38 7 47 31 58 23 11 26
16 16 28 -16 19 -53 18 -72 -4z"/>
<path d="M2765 2228 c-11 -6 -22 -12 -24 -14 -1 -1 3 -12 11 -23 14 -20 15
-20 31 14 18 37 14 41 -18 23z"/>
<path d="M2936 2155 c-9 -23 -8 -25 9 -25 17 0 19 9 6 28 -7 11 -10 10 -15 -3z"/>
<path d="M257 2026 c-6 -15 1 -26 15 -26 11 0 10 27 -1 34 -5 3 -11 0 -14 -8z"/>
<path d="M373 1997 c-46 -24 -61 -37 -60 -52 2 -17 -3 -20 -35 -17 -36 3 -38
2 -38 -25 0 -28 1 -28 66 -31 36 -2 76 -7 89 -12 27 -10 35 -5 35 26 0 17 -7
23 -27 26 -41 5 -38 24 6 50 29 16 41 30 41 46 0 28 -2 28 -77 -11z"/>
<path d="M2986 1932 c-4 -4 -42 -9 -84 -12 -64 -4 -77 -8 -80 -23 -5 -25 17
-50 32 -38 7 6 47 11 89 13 71 3 77 5 77 24 0 24 -23 48 -34 36z"/>
<path d="M402 1691 c4 -13 18 -16 19 -4 0 4 -5 9 -11 12 -7 2 -11 -2 -8 -8z"/>
<path d="M3010 1675 c-1 -5 -1 -20 0 -32 1 -22 -1 -22 -67 -16 -37 3 -75 9
-83 13 -25 12 -40 0 -40 -31 l0 -29 64 0 c35 0 77 -3 94 -6 29 -6 31 -4 37 29
6 30 1 97 -5 72z"/>
<path d="M240 1659 c0 -5 5 -7 10 -4 6 3 10 8 10 11 0 2 -4 4 -10 4 -5 0 -10
-5 -10 -11z"/>
<path d="M320 1645 c-10 -12 -10 -15 3 -15 19 0 31 16 18 24 -5 3 -14 -1 -21
-9z"/>
<path d="M348 1600 c-106 -13 -122 -22 -99 -58 6 -10 18 -11 52 -3 24 6 65 11
91 11 26 0 49 3 51 8 6 10 -11 52 -20 51 -4 -1 -38 -5 -75 -9z"/>
<path d="M2980 1525 c-10 -12 -10 -15 4 -15 9 0 16 7 16 15 0 8 -2 15 -4 15
-2 0 -9 -7 -16 -15z"/>
<path d="M322 1358 c-7 -7 -12 -25 -12 -41 0 -27 1 -28 22 -13 32 23 78 21 78
-2 0 -13 -13 -24 -40 -35 -24 -9 -40 -22 -40 -32 0 -25 23 -27 73 -6 25 11 62
23 82 27 29 5 35 11 35 30 0 28 -25 43 -43 25 -20 -20 -44 -12 -71 24 -28 36
-62 45 -84 23z"/>
<path d="M2750 1341 c-16 -30 -13 -35 36 -55 40 -16 52 -17 80 -7 19 7 38 10
42 7 13 -8 40 16 44 39 2 16 -2 19 -22 17 -103 -14 -127 -13 -139 2 -18 21
-28 20 -41 -3z"/>
<path d="M2880 1195 c0 -8 5 -15 10 -15 6 0 10 7 10 15 0 8 -4 15 -10 15 -5 0
-10 -7 -10 -15z"/>
<path d="M2146 645 c8 -13 13 -29 9 -35 -10 -16 -55 -12 -55 5 0 17 -9 19 -29
6 -12 -8 -10 -16 12 -50 15 -22 24 -46 22 -53 -8 -19 19 -53 34 -44 9 6 8 13
-5 27 -23 26 -11 49 26 49 25 0 33 -6 44 -31 10 -25 14 -28 20 -14 12 33 6 64
-19 83 -14 11 -25 27 -25 35 0 29 -12 47 -31 47 -18 0 -19 -1 -3 -25z"/>
<path d="M1100 638 c0 -13 -14 -47 -30 -77 -17 -30 -30 -60 -30 -68 0 -19 40
-16 46 5 4 9 19 46 35 81 30 66 30 81 -2 81 -13 0 -19 -7 -19 -22z"/>
<path d="M1406 548 c-9 -13 -13 -31 -9 -46 3 -13 0 -34 -7 -46 -18 -35 -9 -70
19 -74 23 -4 23 -3 8 13 -21 20 -21 26 -3 50 12 17 18 18 40 7 28 -12 34 -40
14 -60 -9 -9 -7 -12 8 -12 33 0 49 40 34 86 -10 28 -10 39 -1 42 6 2 11 10 11
19 0 44 -86 61 -114 21z m83 -10 c11 -28 6 -38 -19 -38 -21 0 -45 34 -35 50
11 18 45 10 54 -12z"/>
<path d="M1808 550 c26 -25 29 -68 5 -77 -23 -9 -52 29 -45 63 4 24 3 25 -17
15 -15 -8 -21 -21 -21 -45 0 -42 19 -59 62 -54 28 3 33 0 36 -21 2 -13 -2 -27
-9 -32 -8 -4 -10 -11 -6 -15 11 -11 54 42 62 75 12 56 -19 111 -63 111 l-26 0
22 -20z"/>
<path d="M7274 3026 c-109 -26 -195 -91 -242 -181 -37 -71 -38 -190 -2 -259
45 -89 123 -143 328 -230 113 -47 152 -78 152 -119 0 -40 -7 -50 -47 -71 -63
-32 -222 -16 -340 35 -84 36 -87 33 -110 -83 -24 -125 -24 -126 91 -165 76
-26 92 -27 251 -28 156 0 175 2 230 24 77 31 155 108 178 175 26 75 23 189 -7
251 -42 90 -107 136 -300 216 -155 64 -176 79 -176 125 0 94 142 119 334 59
91 -27 86 -31 110 95 19 96 18 97 -53 124 -110 43 -292 57 -397 32z"/>
<path d="M8163 3033 c-88 -7 -83 27 -83 -563 0 -283 4 -520 8 -526 22 -33 47
-34 847 -34 l796 0 24 25 25 24 0 513 c-1 568 2 543 -66 558 -36 8 -1439 10
-1551 3z m301 -229 c14 -5 16 -34 16 -220 0 -248 7 -281 68 -310 32 -15 41
-15 77 -3 30 11 45 23 60 54 18 35 21 66 25 260 l5 220 49 3 c27 2 60 1 73 -3
l23 -5 0 -205 c0 -113 -5 -228 -11 -257 -30 -142 -110 -208 -252 -208 -95 0
-144 17 -193 65 -67 67 -76 112 -77 371 0 121 3 226 7 232 7 13 103 17 130 6z
m681 -6 c2 -7 6 -60 7 -117 2 -67 7 -106 14 -108 7 -2 47 45 89 104 42 59 84
114 93 121 19 14 148 17 157 2 3 -5 -35 -62 -85 -127 -49 -65 -90 -125 -90
-132 0 -12 52 -103 125 -221 54 -87 86 -153 81 -166 -4 -12 -22 -14 -78 -12
l-72 3 -73 125 c-39 69 -78 126 -85 127 -7 2 -26 -16 -42 -38 -24 -35 -30 -53
-33 -118 -2 -42 -6 -82 -8 -88 -7 -20 -131 -17 -139 3 -8 21 -8 639 1 647 12
13 133 8 138 -5z"/>
<path d="M3756 3014 c-8 -21 -7 -1032 1 -1062 5 -21 11 -22 134 -22 l129 0 0
164 c0 90 3 171 6 180 5 13 25 16 113 16 245 0 403 94 455 270 52 174 -27 341
-199 421 -89 42 -144 49 -400 49 -207 0 -234 -2 -239 -16z m475 -203 c54 -17
97 -64 105 -117 14 -99 -24 -161 -116 -188 -63 -19 -171 -21 -188 -4 -17 17
-17 299 1 317 14 15 139 10 198 -8z"/>
<path d="M4765 3018 c-3 -7 -4 -254 -3 -548 l3 -535 128 -3 c70 -1 128 -1 129
0 1 2 4 100 7 218 l6 215 195 0 195 0 6 -215 c3 -118 6 -216 7 -217 1 -2 58
-3 127 -3 121 0 125 1 130 23 3 12 4 258 3 547 l-3 525 -130 0 -130 0 -5 -215
-5 -215 -195 0 -195 0 -5 215 -5 215 -128 3 c-96 2 -129 -1 -132 -10z"/>
<path d="M5946 3015 c-8 -21 -8 -1048 0 -1069 5 -14 42 -16 308 -16 243 0 309
3 345 16 151 52 231 151 231 285 0 98 -22 151 -86 207 -30 26 -54 52 -54 58 0
5 13 20 29 32 74 55 105 212 60 307 -23 49 -87 118 -130 140 -87 46 -104 48
-405 52 -265 4 -292 3 -298 -12z m489 -199 c68 -21 95 -50 95 -102 0 -34 -6
-49 -31 -73 -17 -17 -40 -33 -52 -35 -133 -27 -189 -31 -219 -15 -16 8 -18 25
-18 119 0 77 4 110 13 113 27 11 166 6 212 -7z m29 -447 c61 -17 96 -58 96
-112 0 -90 -67 -127 -230 -127 -61 0 -100 4 -108 12 -13 13 -18 219 -5 231 11
11 205 8 247 -4z"/>
<path d="M4455 1578 c-3 -7 -4 -112 -3 -233 l3 -220 25 0 c22 0 26 5 31 42 5
42 32 83 53 83 6 0 26 -24 43 -53 41 -69 56 -81 89 -73 l26 7 -20 32 c-11 18
-36 59 -55 91 -41 66 -44 51 27 140 21 27 26 40 18 48 -20 20 -59 -2 -105 -62
-70 -90 -76 -85 -79 73 -3 128 -4 132 -26 135 -12 2 -24 -3 -27 -10z"/>
<path d="M4781 1566 c-7 -8 -10 -24 -6 -36 5 -17 13 -20 38 -18 28 3 32 7 32
33 0 25 -4 31 -26 33 -14 2 -31 -4 -38 -12z"/>
<path d="M6523 1573 c-16 -6 -17 -35 -1 -51 22 -22 78 -8 78 19 0 4 -7 15 -16
23 -15 16 -37 19 -61 9z"/>
<path d="M7834 1566 c-12 -31 0 -51 31 -51 27 0 30 3 30 30 0 25 -4 30 -28 33
-17 2 -29 -2 -33 -12z"/>
<path d="M3758 1533 c-3 -10 -6 -99 -7 -198 -2 -201 3 -224 52 -211 25 6 26
10 29 79 3 69 4 72 28 75 130 13 190 56 190 138 0 102 -46 134 -194 134 -81 0
-94 -2 -98 -17z m201 -55 c16 -10 21 -23 21 -54 0 -55 -22 -74 -91 -77 l-54
-2 -3 64 c-4 90 -1 95 57 88 27 -3 59 -12 70 -19z"/>
<path d="M5746 1533 c-2 -10 -4 -81 -2 -158 2 -159 15 -200 71 -235 66 -41
179 -22 220 36 23 34 36 134 33 254 l-3 115 -30 0 -30 0 -5 -152 c-4 -134 -7
-155 -26 -180 -28 -37 -100 -45 -128 -14 -21 24 -35 122 -36 259 l0 92 -29 0
c-20 0 -31 -6 -35 -17z"/>
<path d="M8017 1524 c-4 -4 -7 -20 -7 -36 0 -20 -7 -32 -24 -40 -14 -6 -27
-17 -31 -26 -6 -17 11 -42 30 -42 9 0 14 -29 17 -104 3 -94 6 -108 27 -130 20
-21 34 -26 72 -26 26 0 50 4 53 9 11 17 -6 41 -28 41 -44 0 -51 14 -54 110 -4
96 -6 92 51 104 20 5 27 12 27 31 0 19 -7 26 -27 31 -49 10 -52 12 -55 46 -2
24 -8 34 -23 36 -12 2 -24 0 -28 -4z"/>
<path d="M5377 1452 c-33 -9 -60 -29 -77 -58 -24 -38 -25 -65 -4 -106 13 -26
14 -37 4 -67 -7 -23 -8 -45 -3 -60 7 -17 4 -34 -9 -61 -35 -71 14 -120 120
-120 127 0 207 99 136 165 -23 22 -37 25 -98 25 -79 0 -100 8 -94 36 2 15 13
20 53 22 28 1 61 8 73 14 32 16 53 60 50 102 -1 26 4 39 22 54 40 33 14 50
-81 54 -44 2 -85 2 -92 0z m81 -84 c13 -28 2 -75 -21 -90 -56 -35 -115 54 -70
104 25 28 74 20 91 -14z m29 -264 c24 -15 22 -39 -6 -61 -24 -19 -111 -16
-133 4 -22 20 -23 31 -2 54 20 22 109 24 141 3z"/>
<path d="M6303 1449 c-18 -3 -40 -12 -48 -19 -12 -10 -20 -9 -39 4 -51 33 -56
18 -56 -150 l0 -154 24 -6 c14 -3 30 -3 35 1 7 4 11 49 11 115 0 105 1 109 26
129 15 12 37 21 49 21 40 0 50 -25 55 -149 l5 -116 30 0 30 0 3 126 c2 116 1
128 -20 159 -26 38 -58 50 -105 39z"/>
<path d="M4156 1420 c-44 -39 -59 -86 -54 -162 4 -52 9 -63 41 -95 31 -32 43
-37 94 -41 71 -5 113 9 113 38 0 20 -4 21 -54 15 -60 -8 -87 2 -112 40 -26 40
-7 53 84 53 42 0 82 1 89 1 21 2 25 41 8 92 -21 62 -59 89 -127 89 -38 0 -54
-6 -82 -30z m133 -44 c35 -37 25 -60 -28 -64 -90 -7 -114 17 -65 63 34 31 64
32 93 1z"/>
<path d="M4787 1443 c-4 -3 -7 -75 -7 -160 0 -133 2 -154 16 -160 9 -3 24 -2
33 4 13 8 16 35 19 154 2 127 1 145 -15 156 -19 14 -36 17 -46 6z"/>
<path d="M4952 1442 c-9 -7 -12 -46 -10 -163 3 -154 3 -154 27 -157 13 -2 28
2 32 10 5 7 9 59 9 115 0 98 1 102 26 122 31 25 53 26 80 7 16 -13 19 -29 22
-130 4 -115 4 -116 29 -122 37 -10 43 8 43 129 0 116 -13 167 -48 186 -30 16
-94 13 -120 -5 -20 -14 -24 -14 -44 0 -26 18 -28 19 -46 8z"/>
<path d="M6532 1442 c-9 -7 -12 -46 -10 -163 l3 -154 25 0 25 0 0 160 c0 134
-2 160 -15 162 -8 2 -21 -1 -28 -5z"/>
<path d="M6654 1436 c-3 -8 -1 -29 4 -48 22 -75 84 -244 94 -255 14 -17 63
-17 77 0 12 16 101 270 101 292 0 19 -16 28 -38 21 -13 -5 -29 -40 -57 -126
-20 -66 -41 -117 -46 -114 -4 2 -23 51 -40 107 -17 56 -39 110 -47 120 -18 21
-41 22 -48 3z"/>
<path d="M7028 1420 c-51 -42 -74 -113 -58 -179 14 -59 58 -108 107 -117 52
-10 125 1 140 21 20 28 5 37 -52 30 -59 -8 -86 2 -111 40 -13 21 -14 28 -4 41
10 12 28 14 81 11 72 -5 115 8 112 34 -7 64 -17 92 -44 119 -26 26 -38 30 -82
30 -43 0 -59 -5 -89 -30z m131 -44 c35 -37 25 -60 -28 -64 -90 -7 -114 17 -65
63 34 31 64 32 93 1z"/>
<path d="M7325 1434 c-12 -12 -15 -42 -15 -148 0 -140 9 -172 46 -164 17 3 19
14 22 103 3 116 21 151 82 164 28 5 36 12 38 34 3 25 0 27 -31 27 -19 0 -40
-7 -47 -15 -13 -16 -50 -21 -50 -6 0 17 -29 20 -45 5z"/>
<path d="M7569 1421 c-32 -32 -38 -75 -16 -105 7 -10 39 -32 72 -49 32 -18 63
-39 69 -49 24 -40 -48 -64 -105 -34 -29 15 -59 5 -59 -19 0 -41 141 -61 190
-28 34 23 40 33 40 71 0 52 -16 71 -86 103 -54 24 -65 32 -62 50 5 35 31 45
74 30 32 -11 38 -11 53 4 15 15 14 18 -8 36 -17 14 -39 19 -78 19 -47 0 -59
-4 -84 -29z"/>
<path d="M7847 1439 c-15 -9 -17 -28 -17 -159 0 -94 4 -151 11 -155 5 -4 21
-4 35 -1 l24 6 0 150 c0 133 -2 150 -18 159 -11 6 -24 6 -35 0z"/>
<path d="M8204 1437 c-3 -8 20 -77 51 -154 30 -77 55 -151 55 -164 0 -36 -25
-65 -60 -72 -29 -6 -49 -31 -36 -45 14 -13 89 -3 108 15 25 23 50 71 76 148
12 33 35 100 51 149 35 101 38 124 15 133 -25 9 -42 -17 -68 -104 -27 -89 -44
-128 -54 -119 -3 4 -21 50 -39 104 -18 53 -41 103 -50 110 -22 16 -42 15 -49
-1z"/>
<path d="M6427 875 c-32 -23 -13 -65 30 -65 16 0 24 7 29 24 3 14 3 29 0 34
-10 16 -42 20 -59 7z"/>
<path d="M8591 877 c-8 -11 -11 -75 -9 -228 l3 -214 33 -3 32 -3 0 106 c0 99
2 107 25 130 27 27 76 33 93 12 6 -7 13 -64 14 -128 l3 -114 33 -3 32 -3 0
125 c0 70 -5 136 -11 149 -16 35 -50 50 -95 44 -98 -15 -88 -21 -94 63 -4 67
-7 75 -26 78 -11 2 -26 -3 -33 -11z"/>
<path d="M9656 875 c-11 -29 -7 -380 5 -414 11 -32 44 -49 74 -37 19 7 19 40
0 56 -12 10 -15 50 -17 209 l-3 196 -26 3 c-17 2 -29 -3 -33 -13z"/>
<path d="M4257 854 c-76 -24 -108 -95 -72 -165 12 -21 39 -41 103 -72 75 -37
87 -47 90 -71 8 -63 -67 -86 -151 -46 -36 18 -43 18 -55 6 -55 -55 123 -113
213 -70 46 21 68 59 67 112 0 56 -27 85 -112 124 -74 33 -100 54 -100 78 0 45
85 67 134 35 44 -29 78 12 39 47 -15 14 -87 39 -103 37 -3 0 -27 -7 -53 -15z"/>
<path d="M5046 859 c-95 -22 -150 -105 -148 -221 2 -134 64 -209 176 -216 71
-4 129 21 134 57 5 29 -24 38 -58 17 -60 -35 -129 -14 -160 48 -30 64 -34 99
-15 155 29 87 111 129 172 86 27 -19 53 -9 53 20 0 39 -86 69 -154 54z"/>
<path d="M8027 858 c-54 -14 -97 -61 -97 -104 0 -62 23 -89 112 -134 88 -44
98 -53 98 -86 0 -53 -78 -70 -151 -33 -32 16 -44 18 -55 8 -64 -53 118 -118
209 -74 51 24 83 91 67 139 -14 44 -37 64 -123 106 -85 42 -97 58 -74 94 14
21 26 26 56 26 21 0 52 -7 67 -15 25 -12 31 -13 43 -1 42 43 -67 95 -152 74z"/>
<path d="M3772 849 l-23 -9 2 -194 c1 -107 5 -200 9 -206 4 -6 20 -10 36 -8
l29 3 5 90 5 90 79 3 c57 2 82 -1 87 -10 5 -7 9 -50 9 -94 0 -71 2 -82 19 -87
10 -2 26 0 35 5 14 8 16 34 16 208 0 174 -2 200 -16 208 -9 5 -25 7 -35 5 -16
-5 -19 -16 -19 -77 0 -39 -4 -77 -9 -84 -5 -9 -30 -12 -87 -10 l-79 3 -3 77
c-3 85 -16 104 -60 87z"/>
<path d="M4537 843 c-4 -3 -7 -97 -7 -208 l0 -202 28 -6 c45 -9 181 2 210 17
49 25 67 54 67 106 0 40 -5 54 -30 80 -25 26 -27 33 -17 48 41 57 37 107 -10
147 -27 23 -37 25 -132 25 -57 0 -106 -3 -109 -7z m196 -75 l21 -28 -20 -27
c-24 -32 -84 -49 -115 -33 -15 8 -19 22 -19 59 0 26 3 51 7 55 4 4 29 6 57 4
40 -2 53 -8 69 -30z m16 -174 c28 -36 26 -60 -5 -89 -22 -20 -38 -25 -79 -25
-39 0 -54 4 -59 16 -8 21 -8 109 1 117 3 4 32 7 64 7 50 0 60 -3 78 -26z"/>
<path d="M5407 843 c-4 -3 -7 -96 -7 -205 l0 -198 27 -11 c36 -13 172 -4 217
15 69 29 88 121 36 179 l-29 34 21 42 c18 36 19 48 10 79 -18 58 -51 72 -169
72 -55 0 -103 -3 -106 -7z m191 -59 c44 -31 21 -90 -41 -104 -66 -14 -77 -6
-77 61 l0 59 48 0 c27 0 57 -7 70 -16z m20 -180 c15 -10 22 -25 22 -49 0 -47
-37 -75 -101 -75 -58 0 -67 13 -61 88 l4 52 57 0 c35 0 65 -6 79 -16z"/>
<path d="M6719 750 c-14 -4 -35 -13 -48 -19 -19 -11 -26 -10 -41 4 -11 10 -26
15 -35 12 -13 -5 -15 -31 -15 -162 l0 -156 33 3 32 3 3 112 c2 107 4 114 27
129 34 22 77 15 92 -16 8 -15 13 -65 13 -126 0 -108 5 -119 49 -107 20 5 21
12 21 113 0 104 -11 162 -34 188 -18 18 -67 30 -97 22z"/>
<path d="M7055 754 c-5 -1 -22 -5 -36 -8 -41 -9 -86 -62 -99 -116 -20 -85 15
-166 87 -196 58 -25 146 -13 160 22 9 24 -13 32 -55 21 -46 -11 -84 2 -108 37
-30 47 -14 57 80 55 46 -1 88 1 95 5 30 19 -1 136 -42 157 -26 15 -69 27 -82
23z m55 -78 c37 -41 21 -57 -52 -54 -71 3 -81 16 -44 53 32 32 66 32 96 1z"/>
<path d="M5796 738 c-13 -7 -16 -27 -16 -117 0 -155 23 -201 100 -201 17 0 45
7 62 16 25 13 36 14 50 5 10 -6 27 -11 38 -11 19 0 20 6 20 150 0 137 -2 150
-19 160 -43 22 -51 5 -51 -109 0 -99 -2 -109 -23 -129 -30 -29 -71 -28 -91 0
-12 17 -16 49 -16 129 0 96 -2 107 -19 112 -10 2 -26 0 -35 -5z"/>
<path d="M6158 726 c-21 -19 -28 -34 -28 -64 0 -45 22 -70 90 -99 64 -28 77
-46 51 -72 -25 -25 -49 -26 -95 -7 -25 10 -37 11 -45 3 -19 -19 -12 -34 25
-52 55 -26 140 -17 171 19 25 29 30 74 12 108 -6 11 -39 33 -74 49 -68 30 -81
47 -60 75 11 16 19 17 64 8 46 -9 53 -9 61 7 15 26 -14 43 -84 47 -54 4 -64 1
-88 -22z"/>
<path d="M6432 738 c-8 -8 -12 -58 -12 -159 0 -156 3 -165 48 -148 21 8 22 12
22 148 0 114 -3 143 -16 155 -19 19 -26 20 -42 4z"/>
<path d="M7280 722 c-56 -56 -39 -107 53 -153 80 -41 90 -54 61 -83 -20 -20
-57 -20 -96 0 -28 14 -32 14 -46 0 -15 -15 -15 -18 5 -38 17 -16 37 -23 80
-25 68 -4 99 9 125 54 17 29 18 34 4 68 -13 30 -27 41 -80 65 -67 31 -79 44
-64 73 10 20 58 23 90 6 16 -9 24 -7 36 5 27 26 -6 49 -77 54 -56 4 -62 2 -91
-26z"/>
<path d="M7559 721 c-55 -56 -36 -108 56 -152 64 -31 79 -47 69 -74 -10 -24
-54 -29 -101 -12 -41 15 -43 15 -53 -3 -17 -31 30 -55 106 -55 53 0 67 4 89
25 22 20 25 32 23 69 -3 40 -8 48 -43 72 -22 15 -52 30 -67 33 -30 6 -46 40
-28 61 15 18 53 19 82 4 16 -9 24 -7 37 6 15 15 14 18 -8 36 -17 14 -39 19
-78 19 -47 0 -59 -4 -84 -29z"/>
<path d="M8345 731 c-46 -28 -67 -67 -72 -135 -5 -73 15 -119 67 -154 29 -20
44 -23 94 -20 43 3 62 10 72 23 12 16 12 21 0 33 -11 12 -21 12 -46 3 -62 -21
-120 27 -120 100 0 81 57 132 122 110 30 -11 47 -4 48 21 1 39 -111 52 -165
19z"/>
<path d="M8995 731 c-45 -27 -67 -66 -72 -130 -14 -176 193 -252 280 -103 42
72 14 196 -53 235 -38 23 -117 22 -155 -2z m133 -67 c30 -34 31 -120 1 -158
-41 -53 -118 -24 -134 51 -10 48 11 110 43 127 33 18 60 12 90 -20z"/>
<path d="M9352 730 c-50 -31 -72 -75 -72 -145 0 -99 58 -165 145 -165 155 0
216 218 85 308 -43 29 -112 30 -158 2z m124 -53 c56 -48 35 -195 -28 -198 -42
-2 -53 2 -77 28 -20 23 -23 34 -19 86 4 50 9 64 32 84 34 29 58 29 92 0z"/>
</g>
</svg>
